HIERARCHY
ROOT joint_Root
{
	OFFSET 0.0 0.0 0.0
	CHANNELS 6 Xposition Yposition Zposition Zrotation Xrotation Yrotation 
	JOINT Hips
	{
		OFFSET 4.5925 91.4895 -427.239
		CHANNELS 6 Xposition Yposition Zposition Zrotation Xrotation Yrotation 
		JOINT Spine
		{
			OFFSET 15.7357 0.0 0.0
			CHANNELS 6 Xposition Yposition Zposition Zrotation Xrotation Yrotation 
			JOINT Chest
			{
				OFFSET 8.98455 -0.406207 0.0
				CHANNELS 6 Xposition Yposition Zposition Zrotation Xrotation Yrotation 
				JOINT Neck
				{
					OFFSET 16.3773 0.0 0.0
					CHANNELS 6 Xposition Yposition Zposition Zrotation Xrotation Yrotation 
					JOINT Head
					{
						OFFSET 6.45672 0.0 0.0
						CHANNELS 6 Xposition Yposition Zposition Zrotation Xrotation Yrotation 
						End Site
						{
							OFFSET 0.0 0.0 0.0
						}
					}
				}
				JOINT Shoulder_L
				{
					OFFSET 12.9942 -0.242716 4.98039
					CHANNELS 6 Xposition Yposition Zposition Zrotation Xrotation Yrotation 
					JOINT UpperArm_L
					{
						OFFSET 5.34809 0.0 0.0
						CHANNELS 6 Xposition Yposition Zposition Zrotation Xrotation Yrotation 
						JOINT LowerArm_L
						{
							OFFSET 24.3286 1.87007e-05 0.0
							CHANNELS 6 Xposition Yposition Zposition Zrotation Xrotation Yrotation 
							JOINT Hand_L
							{
								OFFSET 22.2916 0.0 0.0
								CHANNELS 6 Xposition Yposition Zposition Zrotation Xrotation Yrotation 
								End Site
								{
									OFFSET 0.0 0.0 0.0
								}
							}
						}
					}
				}
				JOINT Shoulder_R
				{
					OFFSET 12.9945 -0.242716 -4.98039
					CHANNELS 6 Xposition Yposition Zposition Zrotation Xrotation Yrotation 
					JOINT UpperArm_R
					{
						OFFSET -5.34813 0.0 0.0
						CHANNELS 6 Xposition Yposition Zposition Zrotation Xrotation Yrotation 
						JOINT LowerArm_R
						{
							OFFSET -24.3289 0.000322201 0.0
							CHANNELS 6 Xposition Yposition Zposition Zrotation Xrotation Yrotation 
							JOINT Hand_R
							{
								OFFSET -22.2915 -0.000108084 0.0
								CHANNELS 6 Xposition Yposition Zposition Zrotation Xrotation Yrotation 
								End Site
								{
									OFFSET 0.0 0.0 0.0
								}
							}
						}
					}
				}
			}
		}
		JOINT UpperLeg_L
		{
			OFFSET -2.19248 -6.46944 0.0
			CHANNELS 6 Xposition Yposition Zposition Zrotation Xrotation Yrotation 
			JOINT LowerLeg_L
			{
				OFFSET 39.0811 0.0 -1.23785e-05
				CHANNELS 6 Xposition Yposition Zposition Zrotation Xrotation Yrotation 
				JOINT Foot_L
				{
					OFFSET 40.9854 0.0 -1.26872e-05
					CHANNELS 6 Xposition Yposition Zposition Zrotation Xrotation Yrotation 
					JOINT Toes_L
					{
						OFFSET 11.7543 0.0 0.0
						CHANNELS 6 Xposition Yposition Zposition Zrotation Xrotation Yrotation 
						End Site
						{
							OFFSET 0.0 0.0 0.0
						}
					}
				}
			}
		}
		JOINT UpperLeg_R
		{
			OFFSET -2.19251 6.46944 0.0
			CHANNELS 6 Xposition Yposition Zposition Zrotation Xrotation Yrotation 
			JOINT LowerLeg_R
			{
				OFFSET -39.0811 -0.00228153 -0.0401928
				CHANNELS 6 Xposition Yposition Zposition Zrotation Xrotation Yrotation 
				JOINT Foot_R
				{
					OFFSET -40.9854 0.0 0.0
					CHANNELS 6 Xposition Yposition Zposition Zrotation Xrotation Yrotation 
					JOINT Toes_R
					{
						OFFSET -11.7543 0.0 0.0
						CHANNELS 6 Xposition Yposition Zposition Zrotation Xrotation Yrotation 
						End Site
						{
							OFFSET 0.0 0.0 0.0
						}
					}
				}
			}
		}
	}
}
MOTION
Frames:	4
Frame Time:	0.0333333
0.000000 0.000000 0.000000 0.000000 0.000000 -0.000000 -1.642940 90.724300 3.056200 87.212000 -4.995830 3.764360 15.735700 0.000005 -0.000001 76.549700 85.723700 -79.341900 8.984550 -0.406207 -0.000000 0.514449 -1.812140 -5.572430 16.377300 -0.000001 -0.000001 7.548230 -1.387450 6.949790 6.456720 -0.000001 -0.000000 -2.072960 3.961000 1.815930 12.994200 -0.242716 4.980390 -90.390500 0.906174 -66.686900 5.348090 -0.000007 -0.000001 -66.043600 17.942700 -4.910840 24.328600 0.000019 0.000005 7.913710 20.064900 -22.056400 22.291600 -0.000001 0.000005 18.249600 5.182500 3.153980 12.994500 -0.242716 -4.980390 96.996700 -13.851800 -62.859300 -5.348130 -0.000001 -0.000004 -62.595300 -71.915200 -103.722000 -24.328900 0.000322 -0.000009 -14.340300 -6.209240 -67.073400 -22.291500 -0.000108 -0.000004 40.677700 5.680760 -19.637700 -2.192480 -6.469440 -0.000000 -172.880000 -11.700200 -3.894510 39.081100 -0.000007 -0.000012 -0.242629 0.408084 30.734300 40.985400 -0.000006 -0.000013 -1.281640 3.250900 -72.516700 11.754300 -0.000000 0.000003 -0.000328 -0.002802 -16.681600 -2.192510 6.469440 -0.000001 -179.911000 14.841900 176.379000 -39.081100 -0.002282 -0.040193 0.027462 -0.042102 29.848700 -40.985400 0.000008 0.000006 6.632670 8.311800 -71.482300 -11.754300 -0.000006 -0.000006 -0.115581 -0.169142 -18.209400
0.000000 0.000000 0.000000 0.000000 0.000000 -0.000000 -1.959250 90.672800 3.007500 86.793800 -4.675670 3.852600 15.735700 0.000005 -0.000001 76.343400 85.670800 -79.357100 8.984550 -0.406207 -0.000000 0.606488 -1.855460 -6.013260 16.377300 -0.000001 -0.000001 7.288870 -1.285770 6.429640 6.456720 -0.000001 -0.000000 -2.274450 3.759160 2.246460 12.994200 -0.242716 4.980390 -90.332300 0.751357 -66.141200 5.348090 -0.000007 -0.000001 -66.092800 16.596400 -4.924290 24.328600 0.000019 0.000005 7.555200 17.209000 -24.148500 22.291600 -0.000001 0.000005 20.058800 5.198020 2.770740 12.994500 -0.242716 -4.980390 96.528200 -13.236500 -63.445700 -5.348130 -0.000001 -0.000004 -47.190200 -70.043700 -85.513200 -24.328900 0.000322 -0.000009 -15.950000 -10.170800 -58.292000 -22.291500 -0.000108 -0.000004 35.170300 5.665070 -16.461900 -2.192480 -6.469440 -0.000000 -172.313000 -10.902600 -4.129060 39.081100 -0.000007 -0.000012 -0.253360 0.417801 31.233600 40.985400 -0.000006 -0.000013 -1.603020 2.930600 -72.683100 11.754300 -0.000000 0.000003 -0.000334 -0.002844 -16.683100 -2.192510 6.469440 -0.000001 -179.471000 15.876000 176.436000 -39.081100 -0.002282 -0.040193 0.027181 -0.041313 30.028200 -40.985400 0.000008 0.000006 6.954790 8.960280 -71.467100 -11.754300 -0.000006 -0.000006 -0.240565 -0.314645 -18.327600
0.000000 0.000000 0.000000 0.000000 0.000000 -0.000000 -2.212220 90.584000 2.956160 86.250500 -5.257460 4.140990 15.735700 0.000005 -0.000001 79.975900 85.648300 -83.340400 8.984550 -0.406207 -0.000000 0.775319 -1.309390 -6.715030 16.377300 -0.000001 -0.000001 7.007170 -0.795633 5.005320 6.456720 -0.000001 -0.000000 -2.577500 3.594760 2.201970 12.994200 -0.242716 4.980390 -90.369200 0.813446 -65.585900 5.348090 -0.000007 -0.000001 -65.206600 17.104700 -5.465860 24.328600 0.000019 0.000005 6.090760 12.976900 -25.417800 22.291600 -0.000001 0.000005 20.573600 5.246260 1.529810 12.994500 -0.242716 -4.980390 95.585500 -12.461800 -65.620800 -5.348130 -0.000001 -0.000004 -36.373700 -65.034600 -68.414100 -24.328900 0.000322 -0.000009 -13.729100 -13.893200 -45.494100 -22.291500 -0.000108 -0.000004 29.689000 5.620970 -12.565900 -2.192480 -6.469440 -0.000000 -171.614000 -10.623300 -4.041780 39.081100 -0.000007 -0.000012 -0.268055 0.430438 31.913000 40.985400 -0.000006 -0.000013 -1.994700 2.209340 -73.050200 11.754300 -0.000000 0.000003 -0.000358 -0.003012 -16.689100 -2.192510 6.469440 -0.000001 -179.151000 16.961900 176.647000 -39.081100 -0.002282 -0.040193 0.025410 -0.037759 30.350500 -40.985400 0.000008 0.000006 7.442390 10.476000 -71.589000 -11.754300 -0.000006 -0.000006 -0.355519 -0.448138 -18.414300
0.000000 0.000000 0.000000 0.000000 0.000000 -0.000000 -2.486680 90.465800 2.883060 85.789600 -5.901590 4.548660 15.735700 0.000005 -0.000001 84.728500 85.572400 -88.612100 8.984550 -0.406207 -0.000000 1.043870 -0.585792 -7.755590 16.377300 -0.000001 -0.000001 6.551290 0.013456 3.232980 6.456720 -0.000001 -0.000000 -2.864340 3.321360 2.685350 12.994200 -0.242716 4.980390 -90.454200 0.984186 -65.227800 5.348090 -0.000007 -0.000001 -63.854600 17.020800 -6.012180 24.328600 0.000019 0.000005 6.277260 12.255800 -27.391100 22.291600 -0.000001 0.000005 19.029300 5.274580 0.774195 12.994500 -0.242716 -4.980390 94.285000 -11.064300 -68.675200 -5.348130 -0.000001 -0.000004 -31.963600 -59.189500 -55.651200 -24.328900 0.000322 -0.000009 -11.875300 -19.094900 -32.753400 -22.291500 -0.000108 -0.000004 25.794700 5.514210 -7.097860 -2.192480 -6.469440 -0.000000 -170.943000 -10.324800 -3.885620 39.081100 -0.000007 -0.000012 -0.283010 0.441223 32.677500 40.985400 -0.000006 -0.000013 -2.407080 1.557310 -73.443500 11.754300 -0.000000 0.000003 -0.000369 -0.003090 -16.691900 -2.192510 6.469440 -0.000001 -178.828000 17.595900 177.018000 -39.081100 -0.002282 -0.040193 0.024943 -0.036573 30.615300 -40.985400 0.000008 0.000006 7.957170 11.533400 -71.999300 -11.754300 -0.000006 -0.000006 -0.262595 -0.340226 -18.344400
